<svg xmlns="http://www.w3.org/2000/svg" width="720" height="600" viewBox="0 0 720 600" font-family="-apple-system, BlinkMacSystemFont, 'Helvetica Neue', Helvetica, Arial, sans-serif">
  <rect x="0" y="0" width="720" height="600" rx="36" fill="#ffffff"/>
  <!-- header -->
  <path d="M36 0 H684 A36 36 0 0 1 720 36 V96 H0 V36 A36 36 0 0 1 36 0 Z" fill="#f6f6f8"/>
  <circle cx="74" cy="48" r="26" fill="#f4d03f"/>
  <circle cx="74" cy="44" r="10" fill="#ffffff" stroke="#555" stroke-width="4"/>
  <circle cx="74" cy="44" r="4" fill="#333"/>
  <rect x="48" y="40" width="9" height="6" fill="#555"/>
  <rect x="91" y="40" width="9" height="6" fill="#555"/>
  <text x="114" y="56" font-size="24" font-weight="600" fill="#1c1c1e">Minion</text>
  <line x1="0" y1="96" x2="720" y2="96" stroke="#e5e5ea" stroke-width="2"/>
  <!-- me -->
  <rect x="356" y="124" width="336" height="60" rx="28" fill="#0a84ff"/>
  <text x="380" y="162" font-size="24" fill="#ffffff">any good coffee open late?</text>
  <!-- minion -->
  <rect x="28" y="200" width="384" height="94" rx="28" fill="#e9e9eb"/>
  <text font-size="24" fill="#1c1c1e"><tspan x="52" y="238">found one 10 min away, open</tspan><tspan x="52" y="272">till 11 with a quiet upstairs</tspan></text>
  <!-- me -->
  <rect x="492" y="310" width="200" height="60" rx="28" fill="#0a84ff"/>
  <text x="516" y="348" font-size="24" fill="#ffffff">remind me at 7</text>
  <!-- minion -->
  <rect x="28" y="386" width="190" height="60" rx="28" fill="#e9e9eb"/>
  <text x="52" y="424" font-size="24" fill="#1c1c1e">got it, 7pm 👍</text>
  <!-- minion proactive -->
  <rect x="28" y="462" width="470" height="94" rx="28" fill="#e9e9eb"/>
  <text font-size="24" fill="#1c1c1e"><tspan x="52" y="500">heads up, your 6pm moved to 6:30,</tspan><tspan x="52" y="534">so I pushed the reminder to 7:30</tspan></text>
</svg>
